<?xml version="1.0" encoding="UTF-8"?>
<!DOCTYPE svg PUBLIC "-//W3C//DTD SVG 1.1//EN" "http://www.w3.org/Graphics/SVG/1.1/DTD/svg11.dtd">
<!-- Creator: CorelDRAW -->
<svg xmlns="http://www.w3.org/2000/svg" xml:space="preserve" width="31.0552mm" height="36.633mm" version="1.1" style="shape-rendering:geometricPrecision; text-rendering:geometricPrecision; image-rendering:optimizeQuality; fill-rule:evenodd; clip-rule:evenodd"
viewBox="0 0 710.13 837.68"
 xmlns:xlink="http://www.w3.org/1999/xlink"
 xmlns:xodm="http://www.corel.com/coreldraw/odm/2003">
 <defs>
  <style type="text/css">
   <![CDATA[
    .fil0 {fill:black}
   ]]>
  </style>
 </defs>
 <g id="Camada_x0020_1">
  <metadata id="CorelCorpID_0Corel-Layer"/>
  <path class="fil0" d="M118.56 444.7l0.4 18.13 -39.99 0.56 -1.01 -17.29 2.51 -0.1c10.93,10.74 35.37,5.89 38.09,-1.29zm-47.72 -9.86c-7.68,4.64 -3.53,11.94 -3.72,29.14l-66.3 2.5c-0.86,1.18 -0.34,-0.09 -0.82,1.89l3.21 117 197.54 -5.84 -3.59 -119.08 -67.56 1.35 -1.34 -18.68 0.45 -4.9c-1.04,-3.14 -1.9,-3.52 -4.7,-4.61 0.47,-2.02 -0.41,-0.64 0.89,-3.38 11.19,-27.16 20.27,-58.44 30.45,-86.54 20.22,-55.8 9.93,-31.78 36.73,-73.74 2.14,-3.35 2.16,-2.88 3.97,-3.89 2.22,10.54 2.83,22.59 4.42,34.16 2.27,16.45 7.29,51.28 8.26,66.69 5.41,53 8.33,64.2 62.53,65.17 50.1,0.89 108.22,0.18 159.12,0.18 21.94,0 38.05,3.03 58.15,5.75l168.71 22.84c56.34,7.45 81.7,-78.99 4.14,-90.22l-196.79 -26.71c-62.38,-8.32 -131.01,-3.88 -193.1,-12.43 19.41,1.84 52.31,-1.74 73.78,-2.42 14.43,-0.76 12.41,2.81 9.05,-20.84l-15.44 -108.48c20.21,0.49 41.88,1.98 61.89,3.38 30.78,2.16 30.84,-2.47 44.6,-18.61 19.38,-22.74 38.33,-47.38 57.43,-70.19 4.61,-5.51 9.92,-11.91 10.2,-22.2 0.79,-28.91 -34.41,-41.73 -53.25,-19.13l-50.35 61.95c-2.4,2.98 -4.92,5.59 -6.81,8.35 -28.61,0.63 -90.81,-6.95 -112.51,-5.56 -24.74,1.58 -75.98,11.68 -93.91,23.07 -10.39,6.61 -62.49,89.62 -72.48,104.55 -17.09,26.22 -27.81,67.96 -38.62,98.35 -5.16,14.52 -10.21,28.91 -15.15,43.5 -3.69,10.89 -2.84,17.36 0.89,27.63zm333.8 287.1l13.12 34.73 -49.95 15.09 49.78 16.48 -15.5 37.41 45.32 -19.15 28.49 31.18 7.94 -37.05 53.52 4.09 -40.83 -34.52 -5.61 7.72 15.3 13.98 -30.41 -1.79 -6.62 25.46 -18.37 -21.17 -29.42 11.29 9.67 -24.24 -26.11 -8.8 26.68 -8.05 -9.25 -25.29 25.88 10.62 3.43 -8.83 -48.04 -22.11 0.97 2.95zm3.59 -181.36c17.22,18.06 17.57,32.26 26.09,57.37 4.69,13.42 9.59,27.44 14.18,41.09 9.52,28.25 18.58,54.43 28.57,82.89 21.63,61.62 92.63,27.58 76.97,-19.96 -4.48,-13.59 -9.46,-27.86 -14.18,-41.11l-42.99 -124.69c-6.32,-17.91 -7.05,-25.24 -18.23,-37.07l-54.87 -56.58c-2.68,-1.34 -101.41,-1.85 -110.86,-0.86 2.59,5.12 86.2,89.5 95.31,98.93zm-157.85 -539.63c-36.97,6.45 -59.62,39.45 -53.86,73.89 5.3,31.67 35.37,59.59 73.91,53.1 31.41,-5.29 58.65,-34.48 53.03,-73.32 -4.42,-30.57 -34.9,-60.32 -73.09,-53.66z"/>
 </g>
</svg>
