<?xml version="1.0" encoding="UTF-8"?>
<!DOCTYPE svg PUBLIC "-//W3C//DTD SVG 1.1//EN" "http://www.w3.org/Graphics/SVG/1.1/DTD/svg11.dtd">
<!-- Creator: CorelDRAW -->
<svg xmlns="http://www.w3.org/2000/svg" xml:space="preserve" width="24.7537mm" height="25.8789mm" version="1.1" style="shape-rendering:geometricPrecision; text-rendering:geometricPrecision; image-rendering:optimizeQuality; fill-rule:evenodd; clip-rule:evenodd"
viewBox="0 0 431.18 450.78"
 xmlns:xlink="http://www.w3.org/1999/xlink"
 xmlns:xodm="http://www.corel.com/coreldraw/odm/2003">
 <defs>
  <style type="text/css">
   <![CDATA[
    .fil0 {fill:#201E1E}
   ]]>
  </style>
 </defs>
 <g id="Camada_x0020_1">
  <metadata id="CorelCorpID_0Corel-Layer"/>
  <path class="fil0" d="M98 0c-10.82,0 -19.6,8.78 -19.6,19.6l0 19.6 -19.6 0c-32.47,0 -58.8,26.32 -58.8,58.8l0 274.38c0,32.47 26.32,58.79 58.8,58.79l158.77 0c-11.48,-11.25 -21,-24.5 -27.98,-39.2l-130.79 0c-10.82,0 -19.6,-8.77 -19.6,-19.6l0 -176.39 313.58 0 0 5.68c14.16,4.22 27.36,10.65 39.2,18.91l0 -122.59c0,-32.47 -26.32,-58.8 -58.8,-58.8l-19.6 0 0 -19.6c0,-10.83 -8.78,-19.6 -19.6,-19.6 -10.82,0 -19.6,8.78 -19.6,19.6l0 19.6 -156.79 0 0 -19.6c0,-10.83 -8.77,-19.6 -19.6,-19.6zm333.18 333.18c0,64.95 -52.65,117.59 -117.59,117.59 -64.95,0 -117.59,-52.65 -117.59,-117.59 0,-64.95 52.65,-117.59 117.59,-117.59 64.94,0 117.59,52.65 117.59,117.59zm-196.34 0c0,43.49 35.26,78.75 78.75,78.75 43.49,0 78.75,-35.26 78.75,-78.75 0,-43.49 -35.26,-78.75 -78.75,-78.75 -43.49,0 -78.75,35.26 -78.75,78.75zm59.15 -39.2c0,-10.83 8.78,-19.6 19.6,-19.6 10.82,0 19.6,8.77 19.6,19.6l0 33.37 17.25 17.25c7.65,7.66 7.65,20.06 0,27.72 -7.65,7.65 -20.06,7.65 -27.72,0l-22.99 -22.99c-4.12,-4.12 -6.02,-9.61 -5.71,-15 -0.02,-0.38 -0.03,-0.77 -0.03,-1.15l0 -39.2zm-19.6 -195.99l0 -19.6 -156.79 0 0 19.6c0,10.82 -8.77,19.6 -19.6,19.6 -10.82,0 -19.6,-8.78 -19.6,-19.6l0 -19.6 -19.6 0c-10.82,0 -19.6,8.77 -19.6,19.6l0 58.79 313.58 0 0 -58.79c0,-10.83 -8.77,-19.6 -19.6,-19.6l-19.6 0 0 19.6c0,10.82 -8.78,19.6 -19.6,19.6 -10.82,0 -19.6,-8.78 -19.6,-19.6z"/>
 </g>
</svg>
