<?xml version="1.0" encoding="UTF-8"?>
<!DOCTYPE svg PUBLIC "-//W3C//DTD SVG 1.1//EN" "http://www.w3.org/Graphics/SVG/1.1/DTD/svg11.dtd">
<!-- Creator: CorelDRAW -->
<svg xmlns="http://www.w3.org/2000/svg" xml:space="preserve" width="12.7251mm" height="31.5189mm" version="1.1" style="shape-rendering:geometricPrecision; text-rendering:geometricPrecision; image-rendering:optimizeQuality; fill-rule:evenodd; clip-rule:evenodd"
viewBox="0 0 52.92 131.07"
 xmlns:xlink="http://www.w3.org/1999/xlink"
 xmlns:xodm="http://www.corel.com/coreldraw/odm/2003">
 <defs>
  <style type="text/css">
   <![CDATA[
    .fil0 {fill:black;fill-rule:nonzero}
   ]]>
  </style>
 </defs>
 <g id="Camada_x0020_1">
  <metadata id="CorelCorpID_0Corel-Layer"/>
  <path class="fil0" d="M12.56 45.95l8.86 3.03 8.36 -23.96 -3.38 0c-0,0 -0,0 -0.01,0 -0,0 -0,0 -0.01,0l-13.99 0c-6.76,0 -12.28,5.5 -12.32,12.26 0,0.02 -0.09,17.51 -0.09,17.53 -0.01,2.43 1.47,4.36 3.52,5.06l3.12 1.07 3.75 -10.98 0.04 0.01c0.03,-6.49 0.02,-4.03 0.06,-12.65 0,-0.57 0.47,-1.03 1.04,-1.03 0.57,0 1.03,0.46 1.03,1.03l0 8.62zm40.16 -8.68c-0.03,-6.76 -5.56,-12.26 -12.32,-12.26l-4.59 0 -9 25.8 1.11 0.38c5.68,1.94 8.73,8.14 6.79,13.83 -1.94,5.68 -8.12,8.73 -13.82,6.79l-8.32 -2.84c0,0 0,52.84 0,55.86 0,3.45 2.8,6.25 6.25,6.25 3.45,0 6.25,-2.8 6.25,-6.25 0,-1.83 0,-40.35 0,-48.56 0,-0.76 0.61,-1.37 1.37,-1.37 0.73,0 1.33,0.59 1.33,1.33 0,7.81 0,45.83 0,48.6 0,3.45 2.8,6.25 6.25,6.25 3.45,0 6.25,-2.8 6.25,-6.25l-0.11 -87.59c-0,-0.6 0.49,-1.09 1.09,-1.09 0.6,-0 1.09,0.49 1.09,1.09 0,0.03 -0,0.06 -0,0.09l0.19 38.24c0.01,2.87 2.34,5.18 5.2,5.18 0.01,0 0.02,0 0.03,0 2.87,-0.01 5.19,-2.36 5.18,-5.23l-0.19 -38.24zm-30.01 29.15c2.72,0.93 5.68,-0.53 6.61,-3.24 0.93,-2.72 -0.52,-5.68 -3.24,-6.61l-3.36 9.85zm14.48 -55.63c0,-5.96 -4.83,-10.79 -10.79,-10.79 -5.96,0 -10.79,4.83 -10.79,10.79 0,5.96 4.83,10.79 10.79,10.79 5.96,0 10.79,-4.83 10.79,-10.79z"/>
 </g>
</svg>
