<?xml version="1.0" encoding="UTF-8"?>
<!DOCTYPE svg PUBLIC "-//W3C//DTD SVG 1.1//EN" "http://www.w3.org/Graphics/SVG/1.1/DTD/svg11.dtd">
<!-- Creator: CorelDRAW -->
<svg xmlns="http://www.w3.org/2000/svg" xml:space="preserve" width="24.7537mm" height="25.213mm" version="1.1" style="shape-rendering:geometricPrecision; text-rendering:geometricPrecision; image-rendering:optimizeQuality; fill-rule:evenodd; clip-rule:evenodd"
viewBox="0 0 5437.93 5538.83"
 xmlns:xlink="http://www.w3.org/1999/xlink"
 xmlns:xodm="http://www.corel.com/coreldraw/odm/2003">
 <defs>
  <style type="text/css">
   <![CDATA[
    .fil0 {fill:#201E1E;fill-rule:nonzero}
   ]]>
  </style>
 </defs>
 <g id="Camada_x0020_1">
  <metadata id="CorelCorpID_0Corel-Layer"/>
  <path class="fil0" d="M3839.81 2220.41c0,309.47 -125.46,589.67 -328.31,792.52 -202.83,202.85 -483.04,328.29 -792.52,328.29 -309.49,0 -589.69,-125.44 -792.54,-328.29 -202.83,-202.85 -328.29,-483.06 -328.29,-792.52 0,-309.51 125.46,-589.71 328.29,-792.54 202.85,-202.83 483.06,-328.31 792.54,-328.31 309.47,0 589.67,125.48 792.52,328.31 202.85,202.83 328.31,483.04 328.31,792.54zm180.23 -1661.58c108.32,42.09 231.02,79.66 354.48,112.3 118.74,31.44 245.01,59.23 361.35,82.45 182.73,36.42 349.21,129.11 472.62,260.54 123.02,131 203.42,299.84 216.54,490.59 62.5,908.62 -101.54,1710.86 -508.61,2388 -395.82,658.41 -1015.67,1189.82 -1874.3,1576.28 -103.4,46.53 -213.68,69.84 -323.17,69.84 -109.49,0 -219.77,-23.31 -323.17,-69.84 -858.56,-386.46 -1478.13,-916.97 -1873.44,-1573.8 -407.11,-676.4 -571.52,-1478.17 -509.7,-2386.6 13.07,-192.13 94.62,-362.14 219.31,-493.51 124.38,-131.04 293.23,-222.82 479.19,-257.42 114.43,-21.33 247.16,-49.12 387.03,-84.51 132.09,-33.44 261.49,-71.7 371.11,-114.32 193.34,-75.09 409.11,-176.54 598.24,-271.09 178.84,-89.45 351.89,-183.02 446.74,-235.1 61.77,-33.92 131.19,-51.52 201.78,-52.57 68.54,-1.01 137.67,14.67 201.14,47.17l4.11 2.11c83.11,42.57 246.97,125.11 478,235.1 206.76,98.44 434.99,202.22 620.75,274.38zm212.19 653.05c-139.3,-36.88 -281.46,-80.69 -413.59,-132.01 -215.99,-83.94 -453.33,-191.28 -660.14,-289.74 -154.5,-73.53 -319.9,-156.63 -434.27,-214.83 -93.28,50.46 -234.22,125.09 -407.16,211.53 -204.66,102.37 -437.93,212.04 -646.39,293.03 -137.98,53.58 -288.66,98.7 -436.79,136.18 -140.38,35.5 -288.09,66.12 -422.05,91.06 -68.41,12.74 -130.03,46 -174.91,93.25 -37.7,39.76 -62.28,89.94 -66.06,145.47 -53.98,793.2 84.95,1485.64 430.91,2060.41 70.3,116.8 149.41,229.08 237.32,336.77 143.87,-104.9 316.6,-180.29 524.31,-231.57 259.55,-64.02 572.86,-90.03 955.57,-90.03 386.35,0 702.01,24.82 963.83,88.36 206.61,50.18 378.31,124.14 521.24,227.77 86.22,-106.13 163.86,-216.67 232.95,-331.59 345.93,-575.41 484.49,-1269.12 429.81,-2064.04 -3.78,-54.99 -28.12,-104.92 -65.49,-144.7 -44,-46.86 -105.58,-80.34 -174.91,-94.18 -115.75,-23.09 -250.15,-53.08 -394.17,-91.17zm-2592.2 3138.1c273.83,232.51 601.77,436.16 985.62,608.96 28.82,12.94 60.68,19.44 93.3,19.44 32.62,0 64.48,-6.48 93.3,-19.44 386.73,-174.05 716.64,-379.26 991.58,-613.5 -70.69,-38.51 -154.33,-68.94 -252.37,-92.73 -209.91,-50.92 -484.24,-70.83 -832.48,-70.83 -342.2,0 -613,20.91 -822.03,72.47 -99.87,24.67 -184.99,56.11 -256.92,95.63zm1475.23 -1733.26c101.4,-101.43 164.12,-241.52 164.12,-396.31 0,-154.79 -62.72,-294.92 -164.12,-396.31 -101.38,-101.38 -241.5,-164.1 -396.28,-164.1 -154.79,0 -294.9,62.72 -396.31,164.1 -101.4,101.38 -164.12,241.52 -164.12,396.31 0,154.79 62.72,294.88 164.12,396.31 101.38,101.38 241.52,164.1 396.31,164.1 154.79,0 294.9,-62.72 396.28,-164.1z"/>
 </g>
</svg>
