<?xml version="1.0" encoding="UTF-8"?>
<!DOCTYPE svg PUBLIC "-//W3C//DTD SVG 1.1//EN" "http://www.w3.org/Graphics/SVG/1.1/DTD/svg11.dtd">
<!-- Creator: CorelDRAW -->
<svg xmlns="http://www.w3.org/2000/svg" xml:space="preserve" width="28.1255mm" height="31.2632mm" version="1.1" style="shape-rendering:geometricPrecision; text-rendering:geometricPrecision; image-rendering:optimizeQuality; fill-rule:evenodd; clip-rule:evenodd"
viewBox="0 0 470.81 523.33"
 xmlns:xlink="http://www.w3.org/1999/xlink"
 xmlns:xodm="http://www.corel.com/coreldraw/odm/2003">
 <defs>
  <style type="text/css">
   <![CDATA[
    .fil0 {fill:black;fill-rule:nonzero}
   ]]>
  </style>
 </defs>
 <g id="Camada_x0020_1">
  <metadata id="CorelCorpID_0Corel-Layer"/>
  <path class="fil0" d="M94.11 109.43c2.33,0.3 4.68,0.45 7.03,0.45 18.97,0 36.95,-10.09 46.87,-26.26 10.06,-16.4 10.7,-37.49 1.66,-54.47 -8.87,-16.66 -26.14,-27.84 -44.98,-29.04 -19.02,-1.21 -37.66,7.75 -48.59,23.37 -11.02,15.76 -12.94,36.75 -4.96,54.25 7.81,17.11 24.32,29.32 42.98,31.7zm56.44 144.67l-0.02 0.04 0 0 -0.02 0.03c-2.62,5.77 -1.32,2.9 -0,0 -5.32,11.64 -19.06,16.78 -30.71,11.48l-34.26 -15.59c5.06,-4.98 5.12,-13.36 0.11,-18.39 -2.18,-2.18 -5.12,-3.55 -8.19,-3.78 -1.84,-0.14 -3.67,0.21 -5.49,0.37 -2.21,0.19 -4.42,0.29 -6.63,0.3 -0.17,-1.4 -0.22,-2.83 -0.13,-4.26 -9.29,4.74 -20.96,2.41 -27.68,-5.56 -5.59,-6.64 -6.9,-16.14 -3.31,-24.04l0.61 -1.35c3.96,-8.72 13.28,-14.12 22.82,-13.21 10.15,0.98 18.58,8.89 20.23,18.95 0.32,1.97 0.39,3.98 0.18,5.96 6.03,-2.98 13.31,-3.33 19.91,-0.33l41.05 18.67c11.65,5.3 16.81,19.04 11.53,30.7zm53.37 7.36c-1.5,-26.7 -6.38,-53.43 -17.17,-78.02 -10.37,-23.6 -27.02,-45.32 -49.51,-58.45 -10.1,-5.9 -25.2,-11.14 -35.95,-11.04 -10.76,0.09 -20.03,2.42 -30.2,7.73 -10.09,5.27 -19.91,11.22 -29.2,17.81 -10.57,7.5 -20.72,16.03 -28.63,26.37 -6.01,7.86 -10.8,16.99 -12.54,26.81 -1.79,10.09 -0.26,20.98 4.84,29.95 7.48,14.28 21.62,24.24 35.57,31.56l-27.93 127.38c-0.51,2.59 0.16,5.25 1.84,7.29 1.68,2.04 4.16,3.21 6.8,3.21l28.52 0 5.47 113.16c0.51,9.83 8.77,17.91 18.62,18.11 9.69,0.21 18.21,-7.23 19.3,-16.86 0.05,-0.39 0.08,-0.78 0.1,-1.18l5.86 -113.23 3.06 0 5.48 113.16c0.51,9.83 8.77,17.91 18.62,18.11 9.69,0.21 18.21,-7.23 19.3,-16.86 0.05,-0.39 0.08,-0.78 0.1,-1.18l5.86 -113.23 27.6 0c2.63,0 5.11,-1.17 6.79,-3.2 1.68,-2.04 2.36,-4.69 1.84,-7.33l-32.49 -153.29 0 -12.38c9.86,23.39 13.67,48.54 15.75,73.66 0.05,0.56 0.09,1.11 0.14,1.67 0.74,8.6 8.36,15.25 16.97,14.88 8.55,-0.37 15.51,-7.58 15.6,-16.13 0,-21.8 -0.18,-24.39 -0.41,-28.48zm-53.37 -7.36c1.32,-2.9 2.63,-5.77 -0.02,0.04l0.02 -0.04zm295.15 160.86c13.23,-15.4 21.6,-33.63 24.22,-52.71 2.53,-18.51 -0.33,-37.34 -8.29,-54.47 -7.48,-16.1 -19.43,-30.63 -34.57,-42.03 -15.24,-11.47 -33.6,-19.66 -53.09,-23.69 -7.72,-1.6 -15.68,-2.56 -23.68,-2.86 -1.86,-0.06 -3.66,0.62 -5,1.91 -1.34,1.29 -2.1,3.07 -2.1,4.93l0 101.47 -97.12 0 0 -49.45c0,-3.13 -2.11,-5.85 -5.14,-6.63l-24.99 -6.42c-3.66,-0.94 -7.39,1.27 -8.33,4.92l-3.38 13.14c-0.45,1.76 -0.19,3.62 0.73,5.18 0.92,1.56 2.43,2.69 4.19,3.15l9.66 2.48 0 30.28c0,2.7 0.02,5.9 0.16,9.15 1.9,43.81 33.29,82.38 80,98.28 0.11,0.04 0.23,0.05 0.34,0.09l-30.02 26.99c-0.93,-0.12 -1.87,-0.19 -2.83,-0.19 -12.39,0 -22.44,10.04 -22.44,22.44 0,12.39 10.04,22.44 22.44,22.44 11.56,0 21.07,-8.74 22.3,-19.98l46.21 -51.42 25.65 -0.01 45.76 50.92c0.99,11.47 10.6,20.48 22.34,20.48 12.39,0 22.44,-10.05 22.44,-22.44 0,-12.39 -10.05,-22.44 -22.44,-22.44 -0.84,0 -1.66,0.05 -2.48,0.14l-30.05 -27.01c0.15,-0.05 0.3,-0.1 0.45,-0.15 17.37,-6.92 34.79,-19.87 49.04,-36.47z"/>
 </g>
</svg>
