<?xml version="1.0" encoding="UTF-8"?>
<!DOCTYPE svg PUBLIC "-//W3C//DTD SVG 1.1//EN" "http://www.w3.org/Graphics/SVG/1.1/DTD/svg11.dtd">
<!-- Creator: CorelDRAW -->
<svg xmlns="http://www.w3.org/2000/svg" xml:space="preserve" width="24.7537mm" height="24.7529mm" version="1.1" style="shape-rendering:geometricPrecision; text-rendering:geometricPrecision; image-rendering:optimizeQuality; fill-rule:evenodd; clip-rule:evenodd"
viewBox="0 0 192.67 192.67"
 xmlns:xlink="http://www.w3.org/1999/xlink"
 xmlns:xodm="http://www.corel.com/coreldraw/odm/2003">
 <defs>
  <style type="text/css">
   <![CDATA[
    .fil0 {fill:#201E1E;fill-rule:nonzero}
   ]]>
  </style>
 </defs>
 <g id="Camada_x0020_1">
  <metadata id="CorelCorpID_0Corel-Layer"/>
  <path class="fil0" d="M64.22 48.17l-24.08 0c-4.44,0 -8.03,-3.6 -8.03,-8.03 0,-4.43 3.59,-8.03 8.03,-8.03l24.08 0c4.44,0 8.03,3.6 8.03,8.03 0,4.43 -3.59,8.03 -8.03,8.03zm126.12 22.62c3.53,3.52 2.99,9.73 -1.19,13.9l-62.9 62.94c-0.56,0.55 -1.19,1.01 -1.82,1.39l-19.12 10.57c-2.65,1.47 -5.62,1.22 -7.44,-0.6 -1.82,-1.82 -2.01,-4.84 -0.56,-7.41l10.66 -19.05c0.34,-0.68 0.8,-1.23 1.3,-1.73 0,-0.1 0.06,-0.14 0.06,-0.14l62.9 -62.94c4.18,-4.17 10.39,-4.71 13.89,-1.2l4.25 4.26 -0.02 0.02zm-45.84 -54.73l0 64.22c0,4.41 -3.61,8.03 -8.03,8.03 -4.42,0 -8.03,-3.61 -8.03,-8.03l0 -60.21c0,-2.25 -1.77,-4.01 -4.01,-4.01l-104.36 0c-2.25,0 -4.01,1.77 -4.01,4.01l0 152.53c0,2.25 1.77,4.01 4.01,4.01l104.36 0c2.25,0 4.01,-1.77 4.01,-4.01l0 -4.01c0,-4.41 3.61,-8.03 8.03,-8.03 4.42,0 8.03,3.61 8.03,8.03l0 8.03c0,8.83 -7.22,16.06 -16.06,16.06l-112.39 0c-8.83,0 -16.06,-7.22 -16.06,-16.06l0 -160.56c0,-8.83 7.22,-16.06 16.06,-16.06l112.39 0c8.83,0 16.06,7.22 16.06,16.06zm-40.14 64.22l-64.22 0c-4.44,0 -8.03,-3.6 -8.03,-8.03 0,-4.43 3.59,-8.03 8.03,-8.03l64.22 0c4.44,0 8.03,3.6 8.03,8.03 0,4.43 -3.59,8.03 -8.03,8.03zm0 32.11l-64.22 0c-4.44,0 -8.03,-3.6 -8.03,-8.03 0,-4.43 3.59,-8.03 8.03,-8.03l64.22 0c4.44,0 8.03,3.6 8.03,8.03 0,4.43 -3.59,8.03 -8.03,8.03z"/>
 </g>
</svg>
