<?xml version="1.0" encoding="UTF-8"?>
<!DOCTYPE svg PUBLIC "-//W3C//DTD SVG 1.1//EN" "http://www.w3.org/Graphics/SVG/1.1/DTD/svg11.dtd">
<!-- Creator: CorelDRAW -->
<svg xmlns="http://www.w3.org/2000/svg" xml:space="preserve" width="24.7536mm" height="20.8451mm" version="1.1" style="shape-rendering:geometricPrecision; text-rendering:geometricPrecision; image-rendering:optimizeQuality; fill-rule:evenodd; clip-rule:evenodd"
viewBox="0 0 372.16 313.39"
 xmlns:xlink="http://www.w3.org/1999/xlink"
 xmlns:xodm="http://www.corel.com/coreldraw/odm/2003">
 <defs>
  <style type="text/css">
   <![CDATA[
    .fil0 {fill:#201E1E;fill-rule:nonzero}
   ]]>
  </style>
 </defs>
 <g id="Camada_x0020_1">
  <metadata id="CorelCorpID_0Corel-Layer"/>
  <path class="fil0" d="M367.85 102.23l-97.94 -97.93c-2.75,-2.76 -6.49,-4.3 -10.39,-4.3l-107.73 0c-8.11,0 -14.69,6.58 -14.69,14.69l0 284.02c0,8.11 6.58,14.69 14.69,14.69l205.66 0c8.11,0 14.69,-6.58 14.69,-14.69l0 -186.08c0,-3.9 -1.55,-7.63 -4.3,-10.39zm-304.19 -102.23c-19.78,0 -36.56,13.1 -42.12,31.08 -2.05,-1.08 -4.38,-1.7 -6.85,-1.7 -8.11,0 -14.69,6.58 -14.69,14.69l0 58.76c0,8.11 6.58,14.69 14.69,14.69 1.72,0 3.36,-0.31 4.9,-0.85l0 152.66c0,3.9 1.55,7.63 4.3,10.39l29.38 29.38c2.87,2.87 6.63,4.3 10.39,4.3 3.76,0 7.52,-1.43 10.39,-4.3l29.38 -29.38c2.75,-2.75 4.3,-6.49 4.3,-10.39l0 -225.25c0,-24.3 -19.77,-44.07 -44.07,-44.07zm14.69 263.24l-14.69 14.69 -14.69 -14.69 0 -96.75 29.38 0 0 96.75 0 0zm0 -126.13l-29.38 0 0 -93.04c0,-8.1 6.59,-14.69 14.69,-14.69 8.1,0 14.69,6.59 14.69,14.69l0 93.04zm220.35 29.38l-88.14 0c-8.11,0 -14.69,6.58 -14.69,14.69 0,8.11 6.58,14.69 14.69,14.69l88.14 0c8.11,0 14.69,-6.58 14.69,-14.69 0,-8.11 -6.58,-14.69 -14.69,-14.69zm0 58.76l-88.14 0c-8.11,0 -14.69,6.57 -14.69,14.69 0,8.11 6.58,14.69 14.69,14.69l88.14 0c8.11,0 14.69,-6.58 14.69,-14.69 0,-8.12 -6.58,-14.69 -14.69,-14.69zm-24.48 -175.1l47.78 47.78 -47.78 0 0 -47.78zm68.56 233.86l-176.28 0 0 -254.63 78.35 0 0 83.24c0,8.11 6.58,14.69 14.69,14.69l83.25 0 0 156.7z"/>
 </g>
</svg>
