<?xml version="1.0" encoding="UTF-8"?>
<!DOCTYPE svg PUBLIC "-//W3C//DTD SVG 1.1//EN" "http://www.w3.org/Graphics/SVG/1.1/DTD/svg11.dtd">
<!-- Creator: CorelDRAW -->
<svg xmlns="http://www.w3.org/2000/svg" xml:space="preserve" width="18.0976mm" height="18.9201mm" version="1.1" style="shape-rendering:geometricPrecision; text-rendering:geometricPrecision; image-rendering:optimizeQuality; fill-rule:evenodd; clip-rule:evenodd"
viewBox="0 0 111.54 116.61"
 xmlns:xlink="http://www.w3.org/1999/xlink"
 xmlns:xodm="http://www.corel.com/coreldraw/odm/2003">
 <defs>
  <style type="text/css">
   <![CDATA[
    .fil0 {fill:#155C8F}
    .fil1 {fill:#155C8F;fill-rule:nonzero}
   ]]>
  </style>
 </defs>
 <g id="Camada_x0020_1">
  <metadata id="CorelCorpID_0Corel-Layer"/>
  <g id="_1961157079872">
   <path class="fil0" d="M25.35 0c-2.8,0 -5.07,2.27 -5.07,5.07l0 5.07 -5.07 0c-8.4,0 -15.21,6.81 -15.21,15.21l0 70.98c0,8.4 6.81,15.21 15.21,15.21l41.07 0c-2.97,-2.91 -5.43,-6.34 -7.24,-10.14l-33.84 0c-2.8,0 -5.07,-2.27 -5.07,-5.07l0 -45.63 81.12 0 0 1.47c3.66,1.09 7.08,2.76 10.14,4.89l0 -31.71c0,-8.4 -6.81,-15.21 -15.21,-15.21l-5.07 0 0 -5.07c0,-2.8 -2.27,-5.07 -5.07,-5.07 -2.8,0 -5.07,2.27 -5.07,5.07l0 5.07 -40.56 0 0 -5.07c0,-2.8 -2.27,-5.07 -5.07,-5.07zm45.63 25.35l0 -5.07 -40.56 0 0 5.07c0,2.8 -2.27,5.07 -5.07,5.07 -2.8,0 -5.07,-2.27 -5.07,-5.07l0 -5.07 -5.07 0c-2.8,0 -5.07,2.27 -5.07,5.07l0 15.21 81.12 0 0 -15.21c0,-2.8 -2.27,-5.07 -5.07,-5.07l-5.07 0 0 5.07c0,2.8 -2.27,5.07 -5.07,5.07 -2.8,0 -5.07,-2.27 -5.07,-5.07z"/>
   <path class="fil1" d="M76.05 76.05c0,-2.8 2.27,-5.07 5.07,-5.07 2.8,0 5.07,2.27 5.07,5.07l0 8.64 4.46 4.46c1.98,1.98 1.98,5.19 0,7.17 -1.98,1.98 -5.19,1.98 -7.17,0l-5.95 -5.95c-1.07,-1.07 -1.56,-2.49 -1.48,-3.88 -0.01,-0.1 -0.01,-0.2 -0.01,-0.3l0 -10.14z"/>
   <path class="fil0" d="M111.54 86.19c0,16.8 -13.62,30.42 -30.42,30.42 -16.8,0 -30.42,-13.62 -30.42,-30.42 0,-16.8 13.62,-30.42 30.42,-30.42 16.8,0 30.42,13.62 30.42,30.42zm-50.79 0c0,11.25 9.12,20.37 20.37,20.37 11.25,0 20.37,-9.12 20.37,-20.37 0,-11.25 -9.12,-20.37 -20.37,-20.37 -11.25,0 -20.37,9.12 -20.37,20.37z"/>
  </g>
 </g>
</svg>
