<?xml version="1.0" encoding="UTF-8"?>
<!DOCTYPE svg PUBLIC "-//W3C//DTD SVG 1.1//EN" "http://www.w3.org/Graphics/SVG/1.1/DTD/svg11.dtd">
<!-- Creator: CorelDRAW -->
<svg xmlns="http://www.w3.org/2000/svg" xml:space="preserve" width="66.0176mm" height="48.379mm" version="1.1" style="shape-rendering:geometricPrecision; text-rendering:geometricPrecision; image-rendering:optimizeQuality; fill-rule:evenodd; clip-rule:evenodd"
viewBox="0 0 619.34 453.87"
 xmlns:xlink="http://www.w3.org/1999/xlink"
 xmlns:xodm="http://www.corel.com/coreldraw/odm/2003">
 <defs>
  <style type="text/css">
   <![CDATA[
    .fil0 {fill:#FEFEFE}
    .fil2 {fill:#201E1E}
    .fil3 {fill:#FEFEFE;fill-rule:nonzero}
    .fil1 {fill:#201E1E;fill-rule:nonzero}
   ]]>
  </style>
 </defs>
 <g id="Camada_x0020_1">
  <metadata id="CorelCorpID_0Corel-Layer"/>
  <polygon class="fil0" points="-0,297.37 619.34,297.37 619.34,21.06 -0,21.06 "/>
  <g id="_2154731933168">
   <path class="fil1" d="M515.31 265.2l-37.3 0 0 -3.55c3.94,-0.1 6.64,-0.9 8.11,-2.42 1.49,-1.52 2.24,-4.2 2.24,-8.08 0,-0.72 -0.05,-1.57 -0.15,-2.58l-5.87 -60.11c-8.57,15.32 -14.7,27.26 -18.38,35.89l-18.9 44.41 -3.42 0 -35.09 -87.56 -2.63 26.95c-1.18,12.15 -1.78,21.81 -1.78,28.91 0,15.94 3.96,24.12 11.92,24.59l0 3.55 -34.09 0 0 -3.55c4.33,-1 7.78,-4.69 10.4,-11.04 1.16,-2.7 2.63,-7.9 4.38,-15.58 2.16,-9.42 3.76,-19.54 4.76,-30.38l1.88 -20.11c0.05,-0.57 0.08,-1.6 0.08,-3.12 0,-3.63 -0.77,-6.08 -2.34,-7.34 -1.37,-1.16 -3.89,-1.78 -7.62,-1.88l0 -3.55 24.74 0 32.18 79.89 18.51 -43.87c6.98,-16.55 11.56,-28.58 13.77,-36.02l26.96 0 0 3.55c-4.07,0.1 -6.93,0.7 -8.6,1.8 -2.11,1.42 -3.17,4.04 -3.17,7.88 0,0.59 0.03,1.18 0.08,1.73l5.9 60.35c0.62,6.54 1.47,10.79 2.58,12.69 1.75,3.19 5.38,4.84 10.86,5l0 3.55zm-154.39 -39.54c0,-9.27 -1.91,-17.97 -5.72,-26.13 -4.22,-8.93 -10.07,-15.55 -17.53,-19.88 -7.18,-4.15 -13.88,-6.2 -20.08,-6.2 -9.89,0 -17.82,3.5 -23.79,10.5 -5.61,6.64 -8.42,15.03 -8.42,25.15 0,13.47 3.86,25.21 11.59,35.22 8.42,10.94 19.15,16.4 32.21,16.4 9.37,0 17.09,-3.53 23.17,-10.58 5.72,-6.75 8.57,-14.91 8.57,-24.48zm12.82 -13.29c0,9.96 -2.81,19.44 -8.44,28.47 -5.64,9.04 -12.9,15.81 -21.78,20.34 -8.11,4.12 -16.58,6.18 -25.41,6.18 -12.87,0 -23.69,-4.38 -32.41,-13.13 -8.75,-8.75 -13.13,-19.57 -13.13,-32.44 0,-14.67 5.41,-27.57 16.24,-38.67 10.84,-11.1 23.56,-16.63 38.18,-16.63 16.84,0 29.99,6.85 39.44,20.52 4.87,7.05 7.31,15.5 7.31,25.36zm-132.46 -16.37c0,-5.97 -1.29,-11.22 -3.84,-15.7 -3.06,-5.38 -7.39,-8.08 -12.98,-8.08 -4.12,0 -7.98,1.26 -11.61,3.78l0 31.51c5.87,4.27 10.94,6.41 15.16,6.41 8.83,0 13.26,-5.97 13.26,-17.92zm29.2 69.2l-18.1 0c-3.68,0 -6.9,-2.16 -9.66,-6.49l-29.86 -46.47 0 37.41c0,7.75 3.86,11.74 11.59,12l0 3.55 -36.92 0 0 -3.55c4.45,-0.05 7.49,-0.93 9.06,-2.65 1.57,-1.7 2.37,-4.84 2.37,-9.37l0 -65.47c0,-4.53 -0.8,-7.65 -2.37,-9.29 -1.57,-1.67 -4.61,-2.55 -9.06,-2.65l0 -3.55 47.89 0c14.21,0 21.32,5.54 21.32,16.61 0,12.31 -7.98,23.04 -23.97,32.21l16.81 26.11c7.54,11.69 14.52,17.71 20.91,18.07l0 3.55zm-106.97 -24.79c0,-7.9 -2.42,-14.21 -7.26,-18.95 -4.81,-4.71 -11.22,-7.08 -19.18,-7.08l-7.7 0 0 39.78c5.17,4.07 10.61,6.1 16.24,6.1 5.64,0 10.09,-1.93 13.36,-5.82 3.01,-3.55 4.53,-8.24 4.53,-14.03zm-3.4 -44.54c0,-6.2 -1.54,-11.53 -4.61,-16.01 -3.5,-5.1 -8.21,-7.65 -14.16,-7.65 -4.99,0 -8.99,1.21 -11.97,3.63l0 35.14 14.75 0c10.66,0 15.99,-5.05 15.99,-15.11zm17.92 35.35c0,9.53 -4.12,17.69 -12.36,24.48 -7.8,6.33 -16.55,9.5 -26.26,9.5l-35.37 0 0 -3.55c4.45,-0.05 7.49,-0.93 9.06,-2.65 1.57,-1.7 2.37,-4.84 2.37,-9.37l0 -65.47c0,-4.53 -0.8,-7.65 -2.37,-9.29 -1.57,-1.67 -4.61,-2.55 -9.06,-2.65l0 -3.55 45.62 0c7.39,0 12.9,1 16.58,3.01 4.87,2.68 7.31,7.36 7.31,14.06 0,10.35 -7.13,19.75 -21.37,28.14 8.01,0.1 13.9,1.06 17.69,2.86 5.43,2.68 8.16,7.52 8.16,14.49z"/>
   <path class="fil1" d="M590.41 110.54c0,-9.27 -1.91,-17.97 -5.72,-26.13 -4.22,-8.93 -10.07,-15.55 -17.53,-19.88 -7.18,-4.15 -13.88,-6.2 -20.08,-6.2 -9.89,0 -17.82,3.5 -23.79,10.5 -5.61,6.64 -8.42,15.03 -8.42,25.15 0,13.47 3.86,25.21 11.59,35.22 8.42,10.94 19.15,16.4 32.21,16.4 9.37,0 17.09,-3.53 23.17,-10.58 5.72,-6.75 8.57,-14.91 8.57,-24.48zm12.82 -13.29c0,9.96 -2.81,19.44 -8.44,28.47 -5.64,9.04 -12.9,15.81 -21.78,20.34 -8.11,4.12 -16.58,6.18 -25.41,6.18 -12.87,0 -23.69,-4.38 -32.41,-13.13 -8.75,-8.75 -13.13,-19.57 -13.13,-32.44 0,-14.67 5.41,-27.57 16.24,-38.67 10.84,-11.1 23.56,-16.63 38.18,-16.63 16.84,0 29.99,6.85 39.44,20.52 4.87,7.05 7.31,15.5 7.31,25.36zm-126.59 4.2c0,-29.68 -12.56,-44.51 -37.69,-44.51 -8.83,0 -16.14,1.93 -21.93,5.82l0 75.36c8.08,4.69 15.94,7.03 23.61,7.03 11.61,0 20.67,-4.53 27.24,-13.59 5.84,-8.03 8.78,-18.07 8.78,-30.1zm14.21 -9.78c0,17.25 -5.61,31.31 -16.81,42.14 -11.2,10.84 -25.46,16.27 -42.79,16.27l-39.57 0 0 -3.55c4.45,-0.05 7.49,-0.93 9.06,-2.65 1.57,-1.7 2.37,-4.84 2.37,-9.37l0 -65.47c0,-4.53 -0.8,-7.65 -2.37,-9.29 -1.57,-1.67 -4.61,-2.55 -9.06,-2.65l0 -3.55 59.37 0c26.54,0 39.8,12.72 39.8,38.13zm-139.18 19.8l-13.83 -39.91 -15.68 39.91 29.5 0zm35.07 38.62l-27.06 0 0 -3.55 1.72 0c0.85,0 1.29,-0.82 1.29,-2.5 0,-0.49 -0.1,-1.06 -0.31,-1.65l-9.11 -26.29 -32.9 0c-3.47,9.76 -5.23,17.04 -5.23,21.83 0,2.6 0.85,4.69 2.5,6.26 1.67,1.57 3.81,2.34 6.41,2.34l3.99 0 0 3.55 -33.78 0 0 -3.55c5.66,-0.31 10.81,-6.31 15.37,-18.05l30.95 -78.81 4.43 0 26.72 77.08c1.85,5.43 3.58,9.5 5.2,12.23 2.91,4.87 6.18,7.39 9.81,7.54l0 3.55zm-118.71 -69.2c0,-5.97 -1.29,-11.22 -3.84,-15.7 -3.06,-5.38 -7.39,-8.08 -12.97,-8.08 -4.12,0 -7.98,1.26 -11.61,3.78l0 31.51c5.87,4.27 10.94,6.41 15.16,6.41 8.83,0 13.26,-5.97 13.26,-17.92zm29.2 69.2l-18.1 0c-3.68,0 -6.9,-2.16 -9.66,-6.49l-29.86 -46.47 0 37.41c0,7.75 3.86,11.74 11.59,12l0 3.55 -36.92 0 0 -3.55c4.45,-0.05 7.49,-0.93 9.06,-2.65 1.57,-1.7 2.37,-4.84 2.37,-9.37l0 -65.47c0,-4.53 -0.8,-7.65 -2.37,-9.29 -1.57,-1.67 -4.61,-2.55 -9.06,-2.65l0 -3.55 47.89 0c14.21,0 21.32,5.54 21.32,16.61 0,12.31 -7.98,23.04 -23.97,32.21l16.81 26.11c7.54,11.69 14.52,17.71 20.91,18.07l0 3.55zm-89 -92.99c-9.37,1.42 -14.06,17.15 -14.06,47.19 0,10.89 -0.05,16.86 -0.15,17.97 -0.54,7.05 -2.24,12.67 -5.05,16.86 -5.82,8.75 -16.27,13.13 -31.33,13.13 -15.88,0 -26.83,-4.51 -32.85,-13.52 -2.96,-4.32 -4.45,-9.68 -4.45,-16.01l0 -53.63c0,-4.53 -0.8,-7.62 -2.37,-9.32 -1.57,-1.67 -4.61,-2.57 -9.06,-2.68l0 -3.55 36.76 0 0 3.55c-4.45,0.1 -7.49,1 -9.06,2.68 -1.57,1.7 -2.37,4.79 -2.37,9.32l0 53.01c0,9.66 3.68,16.79 11.02,21.37 4.17,2.65 9.37,3.99 15.6,3.99 12.87,0 21.27,-4.53 25.2,-13.59 1.91,-4.48 2.86,-11.25 2.86,-20.31 0,-14.78 -0.36,-25.2 -1.06,-31.25 -1.96,-16.19 -6.26,-24.61 -12.85,-25.2l0 -3.55 33.21 0 0 3.55zm-106.84 74.58c-15.94,13.72 -30.48,20.57 -43.61,20.57 -12.44,0 -22.58,-4.63 -30.48,-13.88 -7.44,-8.8 -11.17,-19.51 -11.17,-32.16 0,-19.9 8.5,-35.5 25.49,-46.75 8.08,-5.38 17.84,-8.08 29.27,-8.08 9.94,0 19.33,1.57 28.19,4.69l0 22.81 -5.41 0c-0.64,-7.29 -3.96,-13 -9.94,-17.12 -5.38,-3.73 -11.92,-5.59 -19.59,-5.59 -11.1,0 -19.88,4.22 -26.31,12.67 -5.82,7.7 -8.73,17.25 -8.73,28.73 0,12 3.27,22.14 9.81,30.38 7.05,8.88 16.43,13.34 28.14,13.34 11.12,0 22.58,-4.74 34.34,-14.21l0 4.61z"/>
  </g>
  <polygon class="fil2" points="-0,0 619.34,0 619.34,21.07 -0,21.07 "/>
  <polygon class="fil2" points="-0,297.37 619.34,297.37 619.34,453.87 -0,453.87 "/>
  <g id="_2154731935088">
   <path class="fil3" d="M515.4 418.23c0.78,1.49 1.78,2.65 2.99,3.48 1.21,0.83 2.51,1.25 3.92,1.25 1.9,0 3.44,-0.6 4.63,-1.8 1.19,-1.2 1.78,-2.73 1.78,-4.61 0,-3 -2.65,-5.59 -7.95,-7.76l-0.07 -0.03c-2.86,-1.17 -4.88,-2.49 -6.07,-3.96 -1.2,-1.47 -1.8,-3.33 -1.8,-5.58 0,-3.08 1.02,-5.61 3.08,-7.58 2.05,-1.98 4.71,-2.97 7.97,-2.97 2.44,0 4.58,0.55 6.41,1.65 1.83,1.1 3.19,2.66 4.08,4.67l-2.34 1.57c-0.58,-1.66 -1.46,-2.94 -2.63,-3.83 -1.17,-0.9 -2.56,-1.34 -4.17,-1.34 -1.72,0 -3.13,0.55 -4.23,1.66 -1.1,1.11 -1.65,2.55 -1.65,4.34 0,1.41 0.45,2.61 1.36,3.61 0.9,0.99 2.59,2.01 5.08,3.08 3.91,1.69 6.49,3.29 7.74,4.83 1.25,1.54 1.88,3.52 1.88,5.92 0,3.19 -1.11,5.82 -3.31,7.89 -2.2,2.08 -5,3.11 -8.38,3.11 -2.45,0 -4.55,-0.47 -6.32,-1.41 -1.78,-0.93 -3.32,-2.39 -4.63,-4.35l2.63 -1.86zm-41.51 7.62c-2.48,0 -4.81,-0.44 -6.98,-1.34 -2.19,-0.9 -4.14,-2.21 -5.88,-3.94 -1.71,-1.71 -3.02,-3.71 -3.92,-5.98 -0.9,-2.27 -1.34,-4.7 -1.34,-7.31 0,-2.64 0.45,-5.09 1.35,-7.36 0.91,-2.27 2.23,-4.25 3.96,-5.95 1.73,-1.71 3.7,-3.01 5.9,-3.92 2.2,-0.92 4.5,-1.37 6.91,-1.37 1.93,0 3.81,0.3 5.63,0.91 1.82,0.6 3.54,1.48 5.13,2.63 2.38,1.73 4.22,3.9 5.5,6.49 1.28,2.59 1.91,5.45 1.91,8.56 0,2.62 -0.45,5.06 -1.37,7.32 -0.91,2.26 -2.23,4.25 -3.97,5.97 -1.75,1.73 -3.72,3.05 -5.89,3.94 -2.19,0.9 -4.49,1.34 -6.94,1.34zm11.1 -18.57c0,-4.85 -1.03,-8.78 -3.11,-11.79 -2.07,-3.01 -4.73,-4.52 -7.99,-4.52 -3.24,0 -5.9,1.51 -7.98,4.52 -2.08,3.01 -3.12,6.94 -3.12,11.79 0,4.84 1.04,8.76 3.12,11.77 2.08,3.01 4.74,4.52 7.98,4.52 3.24,0 5.9,-1.51 7.98,-4.51 2.08,-3 3.12,-6.93 3.12,-11.78zm-80.01 17.7l0 -35.54 8.71 0c6.93,0 12.34,1.64 16.24,4.93 3.9,3.28 5.85,7.83 5.85,13.61 0,5.11 -1.59,9.21 -4.77,12.33 -3.18,3.11 -7.38,4.66 -12.59,4.66l-13.44 0zm6.53 -32.87l0 30.2 3.91 0c2.14,0 3.91,-0.19 5.3,-0.57 1.4,-0.38 2.55,-0.97 3.47,-1.77 1.45,-1.27 2.57,-3.01 3.35,-5.21 0.78,-2.2 1.17,-4.75 1.17,-7.64 0,-4.83 -1.26,-8.54 -3.79,-11.13 -2.52,-2.59 -6.16,-3.88 -10.91,-3.88l-2.49 0zm-56.68 32.87l14.59 -36.24 15.17 36.24 -7.01 0 -3.7 -9.47 -12.24 0 -3.66 9.47 -3.15 0zm7.74 -11.7l10.34 0 -5.18 -12.96 -5.16 12.96zm-28.16 11.7l-6.53 0 0 -35.54 6.53 0 0 35.54zm-28.15 -8.42c-1.38,2.99 -3.31,5.29 -5.79,6.88 -2.47,1.61 -5.34,2.4 -8.63,2.4 -4.87,0 -8.92,-1.74 -12.14,-5.23 -3.23,-3.49 -4.84,-7.95 -4.84,-13.39 0,-5.3 1.65,-9.71 4.96,-13.25 3.3,-3.53 7.4,-5.3 12.29,-5.3 2.98,0 5.57,0.61 7.75,1.83 2.19,1.22 4,3.06 5.43,5.5l-2.12 1.49c-1.1,-2.16 -2.46,-3.78 -4.08,-4.86 -1.62,-1.08 -3.49,-1.61 -5.62,-1.61 -3.56,0 -6.39,1.47 -8.47,4.41 -2.08,2.95 -3.12,6.96 -3.12,12.04 0,4.91 0.99,8.72 2.97,11.43 1.99,2.71 4.77,4.06 8.35,4.06 2.39,0 4.52,-0.66 6.37,-1.98 1.85,-1.32 3.36,-3.26 4.53,-5.8l2.15 1.38zm-69.63 9.29c-2.48,0 -4.81,-0.44 -6.98,-1.34 -2.19,-0.9 -4.14,-2.21 -5.88,-3.94 -1.71,-1.71 -3.02,-3.71 -3.92,-5.98 -0.9,-2.27 -1.34,-4.7 -1.34,-7.31 0,-2.64 0.45,-5.09 1.35,-7.36 0.91,-2.27 2.23,-4.25 3.96,-5.95 1.73,-1.71 3.7,-3.01 5.9,-3.92 2.2,-0.92 4.5,-1.37 6.91,-1.37 1.93,0 3.81,0.3 5.63,0.91 1.82,0.6 3.54,1.48 5.13,2.63 2.38,1.73 4.22,3.9 5.5,6.49 1.28,2.59 1.91,5.45 1.91,8.56 0,2.62 -0.45,5.06 -1.37,7.32 -0.91,2.26 -2.23,4.25 -3.97,5.97 -1.75,1.73 -3.72,3.05 -5.9,3.94 -2.19,0.9 -4.49,1.34 -6.94,1.34zm11.1 -18.57c0,-4.85 -1.03,-8.78 -3.11,-11.79 -2.07,-3.01 -4.73,-4.52 -7.99,-4.52 -3.24,0 -5.9,1.51 -7.98,4.52 -2.08,3.01 -3.12,6.94 -3.12,11.79 0,4.84 1.04,8.76 3.12,11.77 2.08,3.01 4.74,4.52 7.98,4.52 3.24,0 5.9,-1.51 7.98,-4.51 2.08,-3 3.12,-6.93 3.12,-11.78zm-69.43 10.96c0.78,1.49 1.78,2.65 2.99,3.48 1.21,0.83 2.51,1.25 3.92,1.25 1.9,0 3.44,-0.6 4.63,-1.8 1.19,-1.2 1.78,-2.73 1.78,-4.61 0,-3 -2.65,-5.59 -7.95,-7.76l-0.07 -0.03c-2.86,-1.17 -4.88,-2.49 -6.07,-3.96 -1.2,-1.47 -1.8,-3.33 -1.8,-5.58 0,-3.08 1.03,-5.61 3.08,-7.58 2.05,-1.98 4.71,-2.97 7.97,-2.97 2.44,0 4.58,0.55 6.41,1.65 1.83,1.1 3.19,2.66 4.08,4.67l-2.34 1.57c-0.58,-1.66 -1.46,-2.94 -2.63,-3.83 -1.17,-0.9 -2.56,-1.34 -4.17,-1.34 -1.72,0 -3.13,0.55 -4.23,1.66 -1.1,1.11 -1.65,2.55 -1.65,4.34 0,1.41 0.45,2.61 1.36,3.61 0.9,0.99 2.59,2.01 5.08,3.08 3.91,1.69 6.49,3.29 7.74,4.83 1.25,1.54 1.88,3.52 1.88,5.92 0,3.19 -1.11,5.82 -3.31,7.89 -2.2,2.08 -5,3.11 -8.38,3.11 -2.45,0 -4.55,-0.47 -6.32,-1.41 -1.78,-0.93 -3.32,-2.39 -4.63,-4.35l2.63 -1.86zm-43.49 0c0.78,1.49 1.78,2.65 2.99,3.48 1.21,0.83 2.51,1.25 3.92,1.25 1.9,0 3.44,-0.6 4.63,-1.8 1.19,-1.2 1.78,-2.73 1.78,-4.61 0,-3 -2.65,-5.59 -7.95,-7.76l-0.07 -0.03c-2.86,-1.17 -4.88,-2.49 -6.07,-3.96 -1.2,-1.47 -1.8,-3.33 -1.8,-5.58 0,-3.08 1.02,-5.61 3.08,-7.58 2.05,-1.98 4.71,-2.97 7.97,-2.97 2.44,0 4.58,0.55 6.41,1.65 1.83,1.1 3.19,2.66 4.08,4.67l-2.34 1.57c-0.58,-1.66 -1.46,-2.94 -2.63,-3.83 -1.17,-0.9 -2.56,-1.34 -4.17,-1.34 -1.72,0 -3.13,0.55 -4.23,1.66 -1.1,1.11 -1.65,2.55 -1.65,4.34 0,1.41 0.45,2.61 1.36,3.61 0.9,0.99 2.59,2.01 5.08,3.08 3.91,1.69 6.49,3.29 7.74,4.83 1.25,1.54 1.88,3.52 1.88,5.92 0,3.19 -1.11,5.82 -3.31,7.89 -2.2,2.08 -5,3.11 -8.38,3.11 -2.45,0 -4.55,-0.47 -6.32,-1.41 -1.78,-0.93 -3.32,-2.39 -4.63,-4.35l2.63 -1.86zm-50.87 6.75l14.59 -36.24 15.17 36.24 -7.01 0 -3.7 -9.47 -12.24 0 -3.66 9.47 -3.15 0zm7.74 -11.7l10.34 0 -5.18 -12.96 -5.16 12.96z"/>
   <path class="fil3" d="M533.32 354.93c0.78,1.49 1.78,2.65 2.99,3.48 1.21,0.83 2.51,1.25 3.92,1.25 1.9,0 3.44,-0.6 4.63,-1.8 1.19,-1.2 1.78,-2.73 1.78,-4.61 0,-3 -2.65,-5.59 -7.95,-7.76l-0.07 -0.03c-2.86,-1.17 -4.88,-2.49 -6.07,-3.96 -1.2,-1.47 -1.8,-3.33 -1.8,-5.58 0,-3.08 1.03,-5.61 3.08,-7.58 2.05,-1.98 4.71,-2.97 7.97,-2.97 2.44,0 4.58,0.55 6.41,1.65 1.83,1.1 3.19,2.66 4.08,4.67l-2.34 1.57c-0.58,-1.66 -1.46,-2.94 -2.63,-3.83 -1.17,-0.9 -2.56,-1.34 -4.17,-1.34 -1.72,0 -3.13,0.55 -4.23,1.66 -1.1,1.11 -1.65,2.55 -1.65,4.34 0,1.41 0.45,2.61 1.36,3.61 0.9,0.99 2.59,2.01 5.08,3.08 3.91,1.69 6.49,3.29 7.74,4.83 1.25,1.54 1.88,3.52 1.88,5.92 0,3.19 -1.11,5.82 -3.31,7.89 -2.2,2.08 -5,3.11 -8.38,3.11 -2.45,0 -4.55,-0.47 -6.32,-1.41 -1.78,-0.93 -3.32,-2.39 -4.63,-4.35l2.63 -1.86zm-41.51 7.62c-2.48,0 -4.81,-0.44 -6.98,-1.34 -2.19,-0.9 -4.14,-2.21 -5.88,-3.94 -1.71,-1.71 -3.02,-3.71 -3.92,-5.98 -0.9,-2.27 -1.34,-4.7 -1.34,-7.31 0,-2.64 0.45,-5.09 1.35,-7.36 0.91,-2.27 2.23,-4.25 3.96,-5.95 1.73,-1.71 3.7,-3.01 5.89,-3.92 2.2,-0.92 4.5,-1.37 6.91,-1.37 1.93,0 3.81,0.3 5.63,0.91 1.82,0.6 3.54,1.48 5.13,2.63 2.39,1.73 4.22,3.9 5.5,6.49 1.28,2.59 1.91,5.45 1.91,8.56 0,2.62 -0.45,5.06 -1.37,7.32 -0.91,2.26 -2.23,4.25 -3.97,5.97 -1.75,1.73 -3.72,3.05 -5.89,3.94 -2.19,0.9 -4.49,1.34 -6.94,1.34zm11.1 -18.57c0,-4.85 -1.03,-8.78 -3.11,-11.79 -2.07,-3.01 -4.73,-4.52 -7.99,-4.52 -3.24,0 -5.9,1.51 -7.98,4.52 -2.08,3.01 -3.12,6.94 -3.12,11.79 0,4.84 1.04,8.76 3.12,11.77 2.08,3.01 4.74,4.52 7.98,4.52 3.24,0 5.9,-1.51 7.98,-4.51 2.08,-3 3.12,-6.93 3.12,-11.78zm-80.01 17.7l0 -35.54 8.71 0c6.93,0 12.34,1.64 16.24,4.93 3.9,3.28 5.85,7.83 5.85,13.61 0,5.11 -1.59,9.21 -4.77,12.33 -3.18,3.11 -7.38,4.66 -12.59,4.66l-13.44 0zm6.53 -32.87l0 30.2 3.91 0c2.14,0 3.91,-0.19 5.3,-0.57 1.4,-0.38 2.55,-0.97 3.47,-1.77 1.45,-1.27 2.57,-3.01 3.35,-5.21 0.78,-2.2 1.17,-4.75 1.17,-7.64 0,-4.83 -1.26,-8.54 -3.79,-11.13 -2.52,-2.59 -6.16,-3.88 -10.91,-3.88l-2.49 0zm-56.68 32.87l14.59 -36.24 15.17 36.24 -7.01 0 -3.7 -9.47 -12.24 0 -3.66 9.47 -3.15 0zm7.74 -11.7l10.34 0 -5.18 -12.96 -5.16 12.96zm-26.16 -4.9l0 11.98c-2.09,1.82 -4.26,3.19 -6.51,4.11 -2.25,0.92 -4.58,1.38 -6.99,1.38 -5.3,0 -9.59,-1.71 -12.87,-5.14 -3.27,-3.43 -4.91,-7.92 -4.91,-13.48 0,-5.3 1.65,-9.71 4.96,-13.25 3.3,-3.53 7.4,-5.3 12.29,-5.3 2.98,0 5.56,0.61 7.75,1.83 2.19,1.22 4,3.06 5.43,5.5l-2.12 1.49c-1.11,-2.16 -2.47,-3.78 -4.08,-4.86 -1.62,-1.08 -3.5,-1.61 -5.62,-1.61 -3.56,0 -6.38,1.47 -8.47,4.41 -2.08,2.95 -3.12,6.96 -3.12,12.04 0,4.89 1,8.69 2.99,11.41 1.99,2.72 4.77,4.08 8.33,4.08 1.39,0 2.68,-0.21 3.87,-0.63 1.19,-0.43 2.22,-1.05 3.09,-1.86l0 -12.09 5.99 0zm-69.52 17.47c-2.48,0 -4.81,-0.44 -6.98,-1.34 -2.19,-0.9 -4.14,-2.21 -5.88,-3.94 -1.71,-1.71 -3.02,-3.71 -3.92,-5.98 -0.9,-2.27 -1.34,-4.7 -1.34,-7.31 0,-2.64 0.45,-5.09 1.35,-7.36 0.91,-2.27 2.23,-4.25 3.96,-5.95 1.73,-1.71 3.7,-3.01 5.9,-3.92 2.2,-0.92 4.5,-1.37 6.91,-1.37 1.93,0 3.81,0.3 5.63,0.91 1.82,0.6 3.54,1.48 5.13,2.63 2.39,1.73 4.22,3.9 5.5,6.49 1.28,2.59 1.91,5.45 1.91,8.56 0,2.62 -0.45,5.06 -1.37,7.32 -0.91,2.26 -2.23,4.25 -3.97,5.97 -1.75,1.73 -3.72,3.05 -5.89,3.94 -2.19,0.9 -4.49,1.34 -6.94,1.34zm11.1 -18.57c0,-4.85 -1.03,-8.78 -3.11,-11.79 -2.07,-3.01 -4.73,-4.52 -7.99,-4.52 -3.24,0 -5.9,1.51 -7.98,4.52 -2.08,3.01 -3.12,6.94 -3.12,11.79 0,4.84 1.04,8.76 3.12,11.77 2.08,3.01 4.74,4.52 7.98,4.52 3.24,0 5.9,-1.51 7.98,-4.51 2.08,-3 3.12,-6.93 3.12,-11.78zm-61.02 18.57l-14.76 -36.41 6.98 0 9.46 24.22 8.98 -24.22 3.43 0 -14.09 36.41zm-62.04 -0.87l0 -35.54 8.71 0c6.93,0 12.34,1.64 16.24,4.93 3.9,3.28 5.85,7.83 5.85,13.61 0,5.11 -1.59,9.21 -4.77,12.33 -3.18,3.11 -7.38,4.66 -12.59,4.66l-13.44 0zm6.53 -32.87l0 30.2 3.91 0c2.14,0 3.91,-0.19 5.3,-0.57 1.4,-0.38 2.55,-0.97 3.47,-1.77 1.45,-1.27 2.57,-3.01 3.35,-5.21 0.78,-2.2 1.17,-4.75 1.17,-7.64 0,-4.83 -1.26,-8.54 -3.79,-11.13 -2.52,-2.59 -6.16,-3.88 -10.91,-3.88l-2.49 0zm-56.68 32.87l14.59 -36.24 15.17 36.24 -7.01 0 -3.7 -9.47 -12.24 0 -3.66 9.47 -3.15 0zm7.74 -11.7l10.34 0 -5.18 -12.96 -5.16 12.96zm-64.41 11.7l0 -35.54 21.98 0 0 2.67 -15.4 0 0 13.01 14.31 0 0 2.67 -14.31 0 0 14.53 15.4 0 0 2.67 -21.98 0z"/>
  </g>
 </g>
</svg>
