<?xml version="1.0" encoding="UTF-8"?>
<!DOCTYPE svg PUBLIC "-//W3C//DTD SVG 1.1//EN" "http://www.w3.org/Graphics/SVG/1.1/DTD/svg11.dtd">
<!-- Creator: CorelDRAW -->
<svg xmlns="http://www.w3.org/2000/svg" xml:space="preserve" width="111.168mm" height="22.1622mm" version="1.1" style="shape-rendering:geometricPrecision; text-rendering:geometricPrecision; image-rendering:optimizeQuality; fill-rule:evenodd; clip-rule:evenodd"
viewBox="0 0 7455.29 1486.27"
 xmlns:xlink="http://www.w3.org/1999/xlink"
 xmlns:xodm="http://www.corel.com/coreldraw/odm/2003">
 <defs>
  <style type="text/css">
   <![CDATA[
    .fil0 {fill:#999999;fill-rule:nonzero}
    .fil1 {fill:white;fill-rule:nonzero}
   ]]>
  </style>
 </defs>
 <g id="Camada_x0020_1">
  <metadata id="CorelCorpID_0Corel-Layer"/>
  <g id="_1943975771104">
   <path class="fil0" d="M607.56 584.26c-113.55,97.78 -217.2,146.57 -310.75,146.57 -88.6,0 -160.88,-33.02 -217.19,-98.87 -53.02,-62.73 -79.62,-139.05 -79.62,-229.12 0,-141.8 60.54,-252.96 181.61,-333.12 57.6,-38.35 127.13,-57.6 208.57,-57.6 70.81,0 137.76,11.19 200.87,33.38l0 162.53 -38.52 0c-4.59,-51.91 -28.25,-92.63 -70.81,-121.99 -38.34,-26.6 -84.94,-39.8 -139.6,-39.8 -79.06,0 -141.62,30.08 -187.48,90.25 -41.46,54.84 -62.19,122.9 -62.19,204.72 0,85.48 23.3,157.76 69.89,216.46 50.27,63.29 117.04,95.03 200.51,95.03 79.25,0 160.88,-33.76 244.71,-101.27l0 32.83zm761.28 -531.43c-66.77,10.09 -100.16,122.18 -100.16,336.26 0,77.59 -0.36,120.15 -1.1,128.04 -3.85,50.26 -15.96,90.25 -35.95,120.14 -41.46,62.37 -115.93,93.55 -223.25,93.55 -113.18,0 -191.14,-32.1 -234.07,-96.3 -21.09,-30.82 -31.73,-68.98 -31.73,-114.11l0 -382.11c0,-32.29 -5.69,-54.3 -16.87,-66.41 -11.19,-11.92 -32.83,-18.34 -64.58,-19.08l0 -25.32 261.96 0 0 25.32c-31.73,0.74 -53.38,7.16 -64.58,19.08 -11.19,12.1 -16.87,34.12 -16.87,66.41l0 377.71c0,68.79 26.23,119.61 78.52,152.26 29.72,18.89 66.77,28.43 111.16,28.43 91.72,0 151.52,-32.29 179.59,-96.85 13.57,-31.93 20.36,-80.17 20.36,-144.74 0,-105.3 -2.57,-179.6 -7.52,-222.7 -13.94,-115.39 -44.58,-175.38 -91.54,-179.6l0 -25.32 236.64 0 0 25.32zm634.17 662.59l-128.96 0c-26.24,0 -49.16,-15.4 -68.79,-46.23l-212.79 -331.11 0 266.54c0,55.22 27.52,83.65 82.56,85.49l0 25.31 -263.06 0 0 -25.31c31.73,-0.37 53.38,-6.61 64.57,-18.89 11.19,-12.12 16.87,-34.5 16.87,-66.78l0 -466.5c0,-32.28 -5.69,-54.49 -16.87,-66.22 -11.19,-11.93 -32.84,-18.16 -64.57,-18.9l0 -25.32 341.2 0c101.26,0 151.89,39.44 151.89,118.33 0,87.69 -56.87,164.18 -170.78,229.48l119.78 186.01c53.75,83.28 103.47,126.21 148.96,128.78l0 25.31zm-208.02 -493.09c0,-42.56 -9.17,-79.98 -27.34,-111.9 -21.83,-38.33 -52.65,-57.6 -92.45,-57.6 -29.35,0 -56.87,8.99 -82.74,26.97l0 224.53c41.83,30.46 77.96,45.69 108.05,45.69 62.92,0 94.47,-42.57 94.47,-127.68zm845.85 493.09l-192.79 0 0 -25.31 12.29 0c6.05,0 9.17,-5.87 9.17,-17.8 0,-3.48 -0.74,-7.52 -2.2,-11.74l-64.94 -187.29 -234.45 0c-24.76,69.52 -37.23,121.44 -37.23,155.55 0,18.53 6.06,33.38 17.79,44.58 11.92,11.19 27.15,16.7 45.68,16.7l28.43 0 0 25.31 -240.68 0 0 -25.31c40.36,-2.21 77.04,-44.95 109.51,-128.59l220.5 -561.52 31.55 0 190.41 549.24c13.21,38.7 25.5,67.68 37.05,87.13 20.74,34.67 44.03,52.64 69.89,53.75l0 25.31zm-249.84 -275.16l-98.51 -284.34 -111.72 284.34 210.23 0zm991.69 -141.07c0,122.91 -39.99,223.06 -119.79,300.3 -79.79,77.22 -181.43,115.93 -304.88,115.93l-281.95 0 0 -25.31c31.73,-0.37 53.38,-6.61 64.58,-18.89 11.19,-12.12 16.87,-34.5 16.87,-66.78l0 -466.5c0,-32.28 -5.69,-54.49 -16.87,-66.22 -11.19,-11.93 -32.84,-18.16 -64.58,-18.9l0 -25.32 423.02 0c189.13,0 283.6,90.62 283.6,271.68zm-101.26 69.71c0,-211.5 -89.52,-317.16 -268.56,-317.16 -62.92,0 -115.01,13.75 -156.29,41.45l0 536.94c57.6,33.38 113.55,50.08 168.22,50.08 82.74,0 147.3,-32.28 194.08,-96.85 41.65,-57.24 62.56,-128.78 62.56,-214.45zm901.98 -29.9c0,71 -19.99,138.5 -60.16,202.89 -40.18,64.39 -91.91,112.63 -155.2,144.92 -57.78,29.35 -118.14,44.02 -181.06,44.02 -91.72,0 -168.77,-31.18 -230.95,-93.55 -62.37,-62.37 -93.55,-139.41 -93.55,-231.13 0,-104.56 38.52,-196.46 115.75,-275.53 77.23,-79.06 167.85,-118.5 272.05,-118.5 119.97,0 213.7,48.8 281.03,146.2 34.67,50.26 52.09,110.43 52.09,180.68zm-91.35 94.66c0,-66.04 -13.57,-128.04 -40.72,-186.19 -30.08,-63.65 -71.72,-110.8 -124.93,-141.62 -51.18,-29.53 -98.88,-44.21 -143.09,-44.21 -70.44,0 -126.94,24.94 -169.5,74.85 -40,47.33 -59.99,107.13 -59.99,179.22 0,95.94 27.52,179.59 82.55,250.94 59.99,77.96 136.48,116.85 229.48,116.85 66.78,0 121.81,-25.13 165.1,-75.39 40.72,-48.06 61.08,-106.22 61.08,-174.45zm959.96 39.63c0,67.87 -29.35,126.02 -88.05,174.45 -55.58,45.12 -117.95,67.69 -187.11,67.69l-252.04 0 0 -25.31c31.73,-0.37 53.38,-6.61 64.57,-18.89 11.19,-12.12 16.87,-34.5 16.87,-66.78l0 -466.5c0,-32.28 -5.68,-54.49 -16.87,-66.22 -11.19,-11.93 -32.83,-18.16 -64.57,-18.9l0 -25.32 325.06 0c52.65,0 91.9,7.16 118.14,21.46 34.67,19.08 52.09,52.47 52.09,100.17 0,73.74 -50.81,140.7 -152.25,200.5 57.05,0.74 99.06,7.52 126.03,20.37 38.7,19.08 58.15,53.56 58.15,103.28zm-127.68 -251.88c0,-44.2 -11,-82.18 -32.83,-114.09 -24.95,-36.32 -58.51,-54.48 -100.89,-54.48 -35.58,0 -64.02,8.62 -85.3,25.87l0 250.4 105.12 0c75.95,0 113.91,-35.96 113.91,-107.69zm24.22 317.36c0,-56.31 -17.24,-101.26 -51.73,-135.01 -34.31,-33.57 -79.98,-50.44 -136.67,-50.44l-54.85 0 0 283.41c36.88,28.99 75.58,43.48 115.76,43.48 40.17,0 71.91,-13.76 95.2,-41.46 21.47,-25.31 32.28,-58.7 32.28,-99.98zm762.21 176.66l-128.96 0c-26.24,0 -49.17,-15.4 -68.79,-46.23l-212.79 -331.11 0 266.54c0,55.22 27.51,83.65 82.55,85.49l0 25.31 -263.06 0 0 -25.31c31.73,-0.37 53.38,-6.61 64.57,-18.89 11.19,-12.12 16.88,-34.5 16.88,-66.78l0 -466.5c0,-32.28 -5.69,-54.49 -16.88,-66.22 -11.19,-11.93 -32.84,-18.16 -64.57,-18.9l0 -25.32 341.2 0c101.26,0 151.89,39.44 151.89,118.33 0,87.69 -56.86,164.18 -170.78,229.48l119.78 186.01c53.75,83.28 103.47,126.21 148.96,128.78l0 25.31zm-208.02 -493.09c0,-42.56 -9.17,-79.98 -27.34,-111.9 -21.83,-38.33 -52.64,-57.6 -92.45,-57.6 -29.35,0 -56.87,8.99 -82.73,26.97l0 224.53c41.82,30.46 77.96,45.69 108.05,45.69 62.92,0 94.47,-42.57 94.47,-127.68zm943.81 116.66c0,71 -19.99,138.5 -60.16,202.89 -40.18,64.39 -91.91,112.63 -155.2,144.92 -57.78,29.35 -118.14,44.02 -181.06,44.02 -91.72,0 -168.77,-31.18 -230.95,-93.55 -62.38,-62.37 -93.55,-139.41 -93.55,-231.13 0,-104.56 38.52,-196.46 115.75,-275.53 77.23,-79.06 167.85,-118.5 272.04,-118.5 119.97,0 213.71,48.8 281.04,146.2 34.67,50.26 52.09,110.43 52.09,180.68zm-91.35 94.66c0,-66.04 -13.57,-128.04 -40.72,-186.19 -30.08,-63.65 -71.72,-110.8 -124.93,-141.62 -51.18,-29.53 -98.88,-44.21 -143.09,-44.21 -70.44,0 -126.94,24.94 -169.5,74.85 -39.99,47.33 -59.98,107.13 -59.98,179.22 0,95.94 27.52,179.59 82.55,250.94 59.99,77.96 136.48,116.85 229.48,116.85 66.78,0 121.81,-25.13 165.1,-75.39 40.72,-48.06 61.08,-106.22 61.08,-174.45zm1100.11 281.77l-265.81 0 0 -25.31c28.07,-0.74 47.33,-6.42 57.79,-17.25 10.64,-10.82 15.96,-29.9 15.96,-57.6 0,-5.14 -0.37,-11.19 -1.11,-18.34l-41.83 -428.33c-61.08,109.15 -104.74,194.26 -130.97,255.71l-134.64 316.44 -24.4 0 -250.03 -623.89 -18.72 192.07c-8.43,86.58 -12.65,155.37 -12.65,206 0,113.55 28.25,171.89 84.94,175.2l0 25.31 -242.88 0 0 -25.31c30.82,-7.16 55.39,-33.39 74.11,-78.71 8.26,-19.25 18.72,-56.31 31.19,-110.98 15.41,-67.14 26.78,-139.23 33.94,-216.47l13.39 -143.27c0.37,-4.04 0.55,-11.37 0.55,-22.19 0,-25.87 -5.51,-43.3 -16.69,-52.28 -9.72,-8.25 -27.7,-12.65 -54.3,-13.39l0 -25.32 176.29 0 229.3 569.22 131.89 -312.58c49.71,-117.95 82.37,-203.62 98.15,-256.64l192.06 0 0 25.32c-28.98,0.74 -49.35,4.95 -61.27,12.84 -15.04,10.09 -22.57,28.8 -22.57,56.13 0,4.22 0.19,8.44 0.55,12.29l42.01 429.98c4.4,46.6 10.46,76.87 18.35,90.44 12.47,22.74 38.33,34.48 77.41,35.59l0 25.31z"/>
   <path class="fil1" d="M254.61 1480.06l0 -253.19 156.64 0 0 19 -109.72 0 0 92.67 101.97 0 0 18.99 -101.97 0 0 103.53 109.72 0 0 19 -156.64 0zm458.91 -83.36l73.67 0 -36.9 -92.35 -36.77 92.35zm-55.13 83.36l103.98 -258.23 108.11 258.23 -49.96 0 -26.36 -67.47 -87.24 0 -26.11 67.47 -22.43 0zm403.85 -234.19l0 215.19 27.86 0c15.24,0 27.85,-1.35 37.74,-4.07 9.95,-2.71 18.16,-6.92 24.75,-12.59 10.34,-9.05 18.29,-21.46 23.85,-37.17 5.56,-15.7 8.34,-33.87 8.34,-54.41 0,-34.44 -8.98,-60.88 -27.01,-79.29 -17.97,-18.42 -43.87,-27.66 -77.73,-27.66l-17.78 0zm-46.53 234.19l0 -253.19 62.04 0c49.37,0 87.95,11.7 115.74,35.15 27.79,23.4 41.69,55.78 41.69,97 0,36.38 -11.31,65.66 -33.99,87.83 -22.68,22.16 -52.6,33.21 -89.7,33.21l-95.77 0zm442.05 6.21l-105.14 -259.4 49.69 0 67.41 172.55 63.97 -172.55 24.43 0 -100.36 259.4zm434.81 -132.36c0,-34.56 -7.37,-62.56 -22.16,-84 -14.74,-21.45 -33.73,-32.18 -56.94,-32.18 -23.07,0 -42.07,10.73 -56.86,32.18 -14.8,21.45 -22.23,49.44 -22.23,84 0,34.51 7.43,62.42 22.23,83.88 14.79,21.45 33.79,32.18 56.86,32.18 23.07,0 42.07,-10.73 56.87,-32.12 14.79,-21.38 22.23,-49.37 22.23,-83.94zm-79.1 132.36c-17.64,0 -34.25,-3.17 -49.76,-9.57 -15.57,-6.4 -29.47,-15.77 -41.87,-28.11 -12.21,-12.21 -21.52,-26.44 -27.92,-42.59 -6.39,-16.16 -9.56,-33.48 -9.56,-52.09 0,-18.8 3.23,-36.25 9.62,-52.4 6.46,-16.16 15.9,-30.31 28.24,-42.4 12.35,-12.15 26.37,-21.45 42.01,-27.91 15.7,-6.53 32.05,-9.76 49.24,-9.76 13.76,0 27.14,2.13 40.13,6.46 12.99,4.27 25.2,10.53 36.58,18.74 16.99,12.35 30.05,27.78 39.16,46.27 9.11,18.48 13.64,38.84 13.64,60.99 0,18.68 -3.23,36.06 -9.76,52.16 -6.46,16.09 -15.9,30.31 -28.31,42.52 -12.47,12.33 -26.49,21.71 -42,28.11 -15.58,6.4 -31.99,9.57 -49.44,9.57zm495.36 -124.46l0 85.36c-14.93,12.99 -30.37,22.75 -46.4,29.27 -16.02,6.53 -32.63,9.83 -49.82,9.83 -37.74,0 -68.31,-12.21 -91.7,-36.64 -23.32,-24.42 -35.02,-56.41 -35.02,-96.03 0,-37.73 11.76,-69.21 35.34,-94.41 23.53,-25.14 52.73,-37.74 87.56,-37.74 21.27,0 39.61,4.33 55.25,13.05 15.57,8.72 28.5,21.78 38.71,39.16l-15.12 10.6c-7.88,-15.38 -17.57,-26.95 -29.08,-34.64 -11.57,-7.69 -24.94,-11.5 -40.06,-11.5 -25.4,0 -45.5,10.47 -60.36,31.41 -14.8,21 -22.23,49.57 -22.23,85.81 0,34.83 7.11,61.91 21.32,81.3 14.16,19.39 33.99,29.08 59.32,29.08 9.89,0 19.07,-1.49 27.6,-4.52 8.46,-3.04 15.83,-7.5 22.04,-13.25l0 -86.14 42.65 0zm186.4 34.89l73.68 0 -36.9 -92.35 -36.77 92.35zm-55.12 83.36l103.98 -258.23 108.11 258.23 -49.96 0 -26.36 -67.47 -87.24 0 -26.1 67.47 -22.43 0zm403.85 -234.19l0 215.19 27.85 0c15.25,0 27.85,-1.35 37.74,-4.07 9.95,-2.71 18.16,-6.92 24.75,-12.59 10.33,-9.05 18.29,-21.46 23.84,-37.17 5.56,-15.7 8.34,-33.87 8.34,-54.41 0,-34.44 -8.99,-60.88 -27.01,-79.29 -17.97,-18.42 -43.88,-27.66 -77.74,-27.66l-17.77 0zm-46.53 234.19l0 -253.19 62.04 0c49.37,0 87.95,11.7 115.74,35.15 27.78,23.4 41.68,55.78 41.68,97 0,36.38 -11.31,65.66 -33.99,87.83 -22.68,22.16 -52.6,33.21 -89.69,33.21l-95.77 0zm570.13 -126.15c0,-34.56 -7.37,-62.56 -22.16,-84 -14.74,-21.45 -33.73,-32.18 -56.93,-32.18 -23.08,0 -42.08,10.73 -56.87,32.18 -14.8,21.45 -22.23,49.44 -22.23,84 0,34.51 7.43,62.42 22.23,83.88 14.79,21.45 33.79,32.18 56.87,32.18 23.06,0 42.06,-10.73 56.86,-32.12 14.8,-21.38 22.23,-49.37 22.23,-83.94zm-79.09 132.36c-17.65,0 -34.26,-3.17 -49.76,-9.57 -15.58,-6.4 -29.47,-15.77 -41.88,-28.11 -12.21,-12.21 -21.51,-26.44 -27.91,-42.59 -6.4,-16.16 -9.56,-33.48 -9.56,-52.09 0,-18.8 3.23,-36.25 9.62,-52.4 6.46,-16.16 15.9,-30.31 28.24,-42.4 12.35,-12.15 26.37,-21.45 42.01,-27.91 15.7,-6.53 32.05,-9.76 49.24,-9.76 13.76,0 27.13,2.13 40.12,6.46 12.99,4.27 25.2,10.53 36.58,18.74 16.99,12.35 30.04,27.78 39.16,46.27 9.11,18.48 13.63,38.84 13.63,60.99 0,18.68 -3.23,36.06 -9.76,52.16 -6.46,16.09 -15.9,30.31 -28.31,42.52 -12.47,12.33 -26.49,21.71 -42,28.11 -15.57,6.4 -31.99,9.57 -49.43,9.57zm295.8 -54.29c5.55,10.6 12.67,18.86 21.33,24.81 8.59,5.95 17.9,8.92 27.92,8.92 13.51,0 24.49,-4.27 32.95,-12.8 8.46,-8.52 12.67,-19.45 12.67,-32.83 0,-21.39 -18.87,-39.81 -56.68,-55.32l-0.52 -0.19c-20.35,-8.34 -34.77,-17.77 -43.24,-28.23 -8.52,-10.47 -12.8,-23.72 -12.8,-39.75 0,-21.97 7.3,-40 21.98,-54.02 14.6,-14.09 33.54,-21.13 56.8,-21.13 17.38,0 32.63,3.94 45.68,11.76 13.06,7.83 22.75,18.94 29.08,33.28l-16.67 11.19c-4.14,-11.83 -10.41,-20.94 -18.74,-27.28 -8.34,-6.4 -18.22,-9.56 -29.73,-9.56 -12.28,0 -22.29,3.94 -30.11,11.82 -7.82,7.88 -11.76,18.16 -11.76,30.96 0,10.07 3.23,18.61 9.7,25.71 6.4,7.04 18.48,14.35 36.19,21.91 27.85,12.02 46.27,23.46 55.12,34.45 8.92,10.98 13.38,25.07 13.38,42.2 0,22.75 -7.88,41.49 -23.59,56.23 -15.7,14.79 -35.61,22.16 -59.71,22.16 -17.44,0 -32.44,-3.37 -45.04,-10.03 -12.66,-6.65 -23.65,-16.99 -32.95,-31.02l18.74 -13.25zm438.94 -35.28l73.67 0 -36.9 -92.35 -36.77 92.35zm-55.13 83.36l103.98 -258.23 108.11 258.23 -49.96 0 -26.36 -67.47 -87.24 0 -26.11 67.47 -22.43 0zm362.49 -48.08c5.56,10.6 12.67,18.86 21.33,24.81 8.6,5.95 17.9,8.92 27.92,8.92 13.51,0 24.49,-4.27 32.95,-12.8 8.47,-8.52 12.67,-19.45 12.67,-32.83 0,-21.39 -18.87,-39.81 -56.68,-55.32l-0.52 -0.19c-20.35,-8.34 -34.77,-17.77 -43.24,-28.23 -8.52,-10.47 -12.8,-23.72 -12.8,-39.75 0,-21.97 7.31,-40 21.98,-54.02 14.6,-14.09 33.54,-21.13 56.8,-21.13 17.38,0 32.63,3.94 45.68,11.76 13.06,7.83 22.75,18.94 29.09,33.28l-16.67 11.19c-4.14,-11.83 -10.41,-20.94 -18.74,-27.28 -8.34,-6.4 -18.23,-9.56 -29.74,-9.56 -12.27,0 -22.29,3.94 -30.1,11.82 -7.83,7.88 -11.77,18.16 -11.77,30.96 0,10.07 3.23,18.61 9.7,25.71 6.4,7.04 18.48,14.35 36.19,21.91 27.85,12.02 46.27,23.46 55.13,34.45 8.91,10.98 13.37,25.07 13.37,42.2 0,22.75 -7.88,41.49 -23.59,56.23 -15.7,14.79 -35.6,22.16 -59.71,22.16 -17.45,0 -32.45,-3.37 -45.05,-10.03 -12.66,-6.65 -23.65,-16.99 -32.95,-31.02l18.74 -13.25zm309.89 0c5.55,10.6 12.67,18.86 21.33,24.81 8.59,5.95 17.9,8.92 27.92,8.92 13.51,0 24.49,-4.27 32.95,-12.8 8.46,-8.52 12.67,-19.45 12.67,-32.83 0,-21.39 -18.87,-39.81 -56.68,-55.32l-0.52 -0.19c-20.35,-8.34 -34.77,-17.77 -43.24,-28.23 -8.52,-10.47 -12.8,-23.72 -12.8,-39.75 0,-21.97 7.3,-40 21.98,-54.02 14.6,-14.09 33.54,-21.13 56.8,-21.13 17.38,0 32.63,3.94 45.68,11.76 13.06,7.83 22.75,18.94 29.08,33.28l-16.67 11.19c-4.14,-11.83 -10.41,-20.94 -18.74,-27.28 -8.34,-6.4 -18.22,-9.56 -29.73,-9.56 -12.28,0 -22.29,3.94 -30.11,11.82 -7.82,7.88 -11.76,18.16 -11.76,30.96 0,10.07 3.23,18.61 9.7,25.71 6.4,7.04 18.48,14.35 36.19,21.91 27.85,12.02 46.27,23.46 55.12,34.45 8.92,10.98 13.38,25.07 13.38,42.2 0,22.75 -7.88,41.49 -23.59,56.23 -15.7,14.79 -35.61,22.16 -59.71,22.16 -17.44,0 -32.44,-3.37 -45.04,-10.03 -12.66,-6.65 -23.65,-16.99 -32.95,-31.02l18.74 -13.25zm494.71 -78.07c0,-34.56 -7.37,-62.56 -22.16,-84 -14.74,-21.45 -33.73,-32.18 -56.94,-32.18 -23.07,0 -42.07,10.73 -56.86,32.18 -14.8,21.45 -22.23,49.44 -22.23,84 0,34.51 7.43,62.42 22.23,83.88 14.79,21.45 33.79,32.18 56.86,32.18 23.07,0 42.07,-10.73 56.87,-32.12 14.8,-21.38 22.23,-49.37 22.23,-83.94zm-79.1 132.36c-17.64,0 -34.25,-3.17 -49.76,-9.57 -15.57,-6.4 -29.47,-15.77 -41.87,-28.11 -12.21,-12.21 -21.51,-26.44 -27.91,-42.59 -6.4,-16.16 -9.56,-33.48 -9.56,-52.09 0,-18.8 3.23,-36.25 9.62,-52.4 6.46,-16.16 15.9,-30.31 28.24,-42.4 12.35,-12.15 26.37,-21.45 42.01,-27.91 15.7,-6.53 32.05,-9.76 49.24,-9.76 13.76,0 27.14,2.13 40.13,6.46 12.99,4.27 25.2,10.53 36.58,18.74 16.99,12.35 30.05,27.78 39.17,46.27 9.11,18.48 13.63,38.84 13.63,60.99 0,18.68 -3.23,36.06 -9.76,52.16 -6.46,16.09 -15.9,30.31 -28.31,42.52 -12.47,12.33 -26.49,21.71 -42,28.11 -15.57,6.4 -31.99,9.57 -49.44,9.57zm496.14 -66.18c-9.82,21.33 -23.59,37.68 -41.23,49.05 -17.58,11.44 -38.07,17.13 -61.46,17.13 -34.71,0 -63.59,-12.41 -86.53,-37.29 -23,-24.89 -34.5,-56.68 -34.5,-95.39 0,-37.73 11.76,-69.21 35.34,-94.41 23.53,-25.14 52.73,-37.74 87.56,-37.74 21.27,0 39.68,4.33 55.25,13.05 15.57,8.72 28.5,21.78 38.71,39.16l-15.12 10.6c-7.82,-15.38 -17.51,-26.95 -29.08,-34.64 -11.57,-7.69 -24.88,-11.5 -40.06,-11.5 -25.4,0 -45.5,10.47 -60.36,31.41 -14.8,21 -22.23,49.57 -22.23,85.81 0,34.97 7.04,62.11 21.19,81.44 14.16,19.31 33.99,28.94 59.53,28.94 17.05,0 32.18,-4.71 45.36,-14.09 13.18,-9.43 23.98,-23.2 32.31,-41.35l15.32 9.82zm200.55 59.97l-46.53 0 0 -253.19 46.53 0 0 253.19zm200.68 -83.36l73.67 0 -36.9 -92.35 -36.76 92.35zm-55.13 83.36l103.98 -258.23 108.11 258.23 -49.95 0 -26.36 -67.47 -87.25 0 -26.1 67.47 -22.43 0zm403.85 -234.19l0 215.19 27.85 0c15.25,0 27.85,-1.35 37.74,-4.07 9.95,-2.71 18.15,-6.92 24.75,-12.59 10.34,-9.05 18.29,-21.46 23.85,-37.17 5.56,-15.7 8.34,-33.87 8.34,-54.41 0,-34.44 -8.99,-60.88 -27.01,-79.29 -17.97,-18.42 -43.88,-27.66 -77.74,-27.66l-17.77 0zm-46.53 234.19l0 -253.19 62.04 0c49.37,0 87.95,11.7 115.74,35.15 27.79,23.4 41.68,55.78 41.68,97 0,36.38 -11.31,65.66 -33.99,87.83 -22.68,22.16 -52.6,33.21 -89.69,33.21l-95.77 0zm570.13 -126.15c0,-34.56 -7.36,-62.56 -22.16,-84 -14.73,-21.45 -33.73,-32.18 -56.93,-32.18 -23.07,0 -42.08,10.73 -56.87,32.18 -14.79,21.45 -22.23,49.44 -22.23,84 0,34.51 7.44,62.42 22.23,83.88 14.79,21.45 33.8,32.18 56.87,32.18 23.06,0 42.07,-10.73 56.87,-32.12 14.79,-21.38 22.22,-49.37 22.22,-83.94zm-79.09 132.36c-17.64,0 -34.25,-3.17 -49.76,-9.57 -15.58,-6.4 -29.47,-15.77 -41.87,-28.11 -12.21,-12.21 -21.52,-26.44 -27.92,-42.59 -6.4,-16.16 -9.56,-33.48 -9.56,-52.09 0,-18.8 3.23,-36.25 9.63,-52.4 6.46,-16.16 15.89,-30.31 28.24,-42.4 12.34,-12.15 26.36,-21.45 42,-27.91 15.71,-6.53 32.05,-9.76 49.24,-9.76 13.76,0 27.13,2.13 40.13,6.46 12.98,4.27 25.2,10.53 36.58,18.74 16.99,12.35 30.04,27.78 39.16,46.27 9.11,18.48 13.64,38.84 13.64,60.99 0,18.68 -3.24,36.06 -9.76,52.16 -6.46,16.09 -15.9,30.31 -28.3,42.52 -12.47,12.33 -26.5,21.71 -42.01,28.11 -15.57,6.4 -31.98,9.57 -49.43,9.57zm295.8 -54.29c5.56,10.6 12.67,18.86 21.33,24.81 8.6,5.95 17.9,8.92 27.92,8.92 13.51,0 24.49,-4.27 32.95,-12.8 8.47,-8.52 12.67,-19.45 12.67,-32.83 0,-21.39 -18.86,-39.81 -56.68,-55.32l-0.52 -0.19c-20.35,-8.34 -34.77,-17.77 -43.24,-28.23 -8.52,-10.47 -12.8,-23.72 -12.8,-39.75 0,-21.97 7.31,-40 21.98,-54.02 14.6,-14.09 33.54,-21.13 56.8,-21.13 17.38,0 32.63,3.94 45.68,11.76 13.06,7.83 22.75,18.94 29.09,33.28l-16.67 11.19c-4.14,-11.83 -10.41,-20.94 -18.74,-27.28 -8.34,-6.4 -18.23,-9.56 -29.74,-9.56 -12.27,0 -22.29,3.94 -30.1,11.82 -7.83,7.88 -11.77,18.16 -11.77,30.96 0,10.07 3.23,18.61 9.7,25.71 6.4,7.04 18.48,14.35 36.19,21.91 27.85,12.02 46.27,23.46 55.13,34.45 8.91,10.98 13.37,25.07 13.37,42.2 0,22.75 -7.88,41.49 -23.58,56.23 -15.71,14.79 -35.61,22.16 -59.71,22.16 -17.45,0 -32.45,-3.37 -45.05,-10.03 -12.66,-6.65 -23.65,-16.99 -32.95,-31.02l18.74 -13.25z"/>
  </g>
 </g>
</svg>
