<?xml version="1.0" encoding="UTF-8"?>
<!DOCTYPE svg PUBLIC "-//W3C//DTD SVG 1.1//EN" "http://www.w3.org/Graphics/SVG/1.1/DTD/svg11.dtd">
<!-- Creator: CorelDRAW -->
<svg xmlns="http://www.w3.org/2000/svg" xml:space="preserve" width="9.9295mm" height="9.9294mm" version="1.1" style="shape-rendering:geometricPrecision; text-rendering:geometricPrecision; image-rendering:optimizeQuality; fill-rule:evenodd; clip-rule:evenodd"
viewBox="0 0 68.25 68.25"
 xmlns:xlink="http://www.w3.org/1999/xlink"
 xmlns:xodm="http://www.corel.com/coreldraw/odm/2003">
 <defs>
  <style type="text/css">
   <![CDATA[
    .fil0 {fill:#005197;fill-rule:nonzero}
   ]]>
  </style>
 </defs>
 <g id="Camada_x0020_1">
  <metadata id="CorelCorpID_0Corel-Layer"/>
  <path class="fil0" d="M50.5 39.22c-0.13,-0.06 -5.11,-2.51 -5.99,-2.83 -0.36,-0.13 -0.75,-0.26 -1.16,-0.26 -0.67,0 -1.24,0.34 -1.68,0.99 -0.5,0.74 -2,2.5 -2.47,3.02 -0.06,0.07 -0.14,0.15 -0.19,0.15 -0.04,0 -0.81,-0.32 -1.05,-0.42 -5.34,-2.32 -9.39,-7.89 -9.94,-8.83 -0.08,-0.13 -0.08,-0.2 -0.08,-0.2 0.02,-0.07 0.2,-0.25 0.29,-0.35 0.27,-0.27 0.56,-0.62 0.85,-0.96 0.13,-0.16 0.27,-0.32 0.4,-0.48 0.41,-0.48 0.6,-0.85 0.81,-1.28l0.11 -0.22c0.52,-1.03 0.08,-1.9 -0.07,-2.19 -0.12,-0.23 -2.22,-5.31 -2.44,-5.84 -0.54,-1.29 -1.25,-1.88 -2.23,-1.88 -0.09,0 0,0 -0.38,0.02 -0.47,0.02 -3.01,0.35 -4.14,1.06 -1.19,0.75 -3.21,3.15 -3.21,7.37 0,3.8 2.41,7.38 3.44,8.74 0.03,0.04 0.07,0.1 0.14,0.2 3.96,5.78 8.9,10.07 13.9,12.07 4.82,1.92 7.1,2.15 8.4,2.15 0,0 0,0 0,0 0.55,0 0.98,-0.04 1.37,-0.08l0.24 -0.02c1.66,-0.15 5.32,-2.04 6.15,-4.35 0.66,-1.82 0.83,-3.81 0.39,-4.53 -0.3,-0.49 -0.81,-0.74 -1.47,-1.05zm-15.77 -39.22c-18.48,0 -33.52,14.92 -33.52,33.27 0,5.93 1.59,11.74 4.6,16.82l-5.76 16.98c-0.11,0.32 -0.03,0.67 0.21,0.91 0.17,0.17 0.4,0.27 0.63,0.27 0.09,0 0.18,-0.01 0.27,-0.04l17.71 -5.63c4.85,2.59 10.32,3.96 15.87,3.96 18.48,0 33.52,-14.92 33.52,-33.27 0,-18.35 -15.04,-33.27 -33.52,-33.27zm0 59.6c-5.22,0 -10.27,-1.51 -14.61,-4.36 -0.15,-0.1 -0.32,-0.14 -0.49,-0.14 -0.09,0 -0.18,0.01 -0.27,0.04l-8.87 2.82 2.86 -8.45c0.09,-0.27 0.05,-0.57 -0.12,-0.81 -3.31,-4.52 -5.06,-9.86 -5.06,-15.44 0,-14.52 11.91,-26.34 26.55,-26.34 14.64,0 26.55,11.82 26.55,26.34 0,14.52 -11.91,26.33 -26.55,26.33z"/>
 </g>
</svg>
